<svg width="28" height="28" viewBox="0 0 28 28" fill="none" xmlns="http://www.w3.org/2000/svg">
  <defs>
    <linearGradient id="fishGrad" x1="0" y1="0" x2="28" y2="28" gradientUnits="userSpaceOnUse">
      <stop stop-color="#06b6d4"/>
      <stop offset="0.5" stop-color="#3b82f6"/>
      <stop offset="1" stop-color="#0ea5e9"/>
    </linearGradient>
  </defs>
  <!-- Simple fish glyph -->
  <path d="M6 6c6 0 12 3.5 16 8-4 4.5-10 8-16 8-1.5 0-3-.3-4.5-1 1-1.6 2.6-3.4 4.5-4 1.6-.5 3.3-.4 5 .2-1.4-2.7-4-4.2-6.6-5-1.9-.6-3.4-2.4-4.4-4 1.5-.7 3-1 4.5-1z" fill="url(#fishGrad)"/>
  <circle cx="11.5" cy="9.2" r="1.2" fill="#0f172a"/>
  <path d="M21.5 12.5c1.2.8 2.3.8 3.5 0" stroke="url(#fishGrad)" stroke-linecap="round" stroke-width="1.8"/>
</svg>
