<svg width="128" height="32" viewBox="0 0 128 32" fill="none" xmlns="http://www.w3.org/2000/svg">
  <defs>
    <linearGradient id="ocean" x1="0" y1="0" x2="128" y2="32" gradientUnits="userSpaceOnUse">
      <stop stop-color="#06b6d4"/>
      <stop offset="0.5" stop-color="#3b82f6"/>
      <stop offset="1" stop-color="#0ea5e9"/>
    </linearGradient>
  </defs>
  <!-- Stylized fish -->
  <g>
    <path d="M14 6c6 0 11 5 11 10s-5 10-11 10c-3.2 0-6.7-1.7-9.6-4.6-.6-.6-.6-1.6 0-2.2C7.3 15.3 10.8 14 14 14c1.8 0 3.5.5 5 1.4C18.5 12.6 16.5 10 14 10c-3 0-6 1.6-9.6 4.6-.6.6-1.6.6-2.2 0C.8 13.1.8 12.1 1.4 11.5 4.3 8.7 8.7 6 14 6z" fill="url(#ocean)" opacity="0.9"/>
    <circle cx="16" cy="12" r="1.3" fill="#0f172a"/>
  </g>
  <!-- Wave underline -->
  <path d="M40 24c6 3 12 3 18 0s12-3 18 0 12 3 18 0 12-3 18 0" stroke="url(#ocean)" stroke-width="2" fill="none" stroke-linecap="round" opacity="0.5"/>
  <!-- Text mark -->
  <text x="40" y="18" font-family="Inter, system-ui, -apple-system, Segoe UI, Roboto, Ubuntu, Cantarell, 'Helvetica Neue', Arial, 'Noto Sans', 'Apple Color Emoji', 'Segoe UI Emoji'" font-weight="700" font-size="16" fill="url(#ocean)">FishLink</text>
</svg>
